# xmcd
#
# Track frame offsets:
#  150
#  13895
#  29870
#  52535
#  70502
#  86684
#  106318
#  122463
#  140683
#  158995
#  178976
#  191736
#  205301
#
# Disc length: 2847 seconds
#
# Revision: 0
# Processed by: cddbd v1.5.2PL0 Copyright (c) Steve Scherf et al.
# Submitted via: Collectorz.com Music Collector 6.9
#
DISCID=b70b1d0d
DTITLE=Various Artist - Country Wedding Songs
DYEAR=1900
DGENRE=
TTITLE0=Here Comes the Bride
TTITLE1=W. Aldridsge - E. Park - I Loved Her First
TTITLE2=R. Thomas - B. Carlisle - Butterfly Kisses
TTITLE3=M. Green - C. Lindsey - A. Mayo - Amazed
TTITLE4=E. Lange - R. Lange - You're Still the One
TTITLE5=M. Seidel - M. Hummon - Cowboy Take Me Away
TTITLE6=E. Kaz - S. Dorff - I Cross My Heart
TTITLE7=D. Lee - K. Stanley - D. Mayo - Keeper of the Stars
TTITLE8=A. Hunt-Taylor - C. Jones - Your Love Amazes Me
TTITLE9=Ave Maria
TTITLE10=Trumpet Voluntary
TTITLE11=Ode to Joy
TTITLE12=The Wedding March
EXTD=
EXTT0=
EXTT1=
EXTT2=
EXTT3=
EXTT4=
EXTT5=
EXTT6=
EXTT7=
EXTT8=
EXTT9=
EXTT10=
EXTT11=
EXTT12=
PLAYORDER=
